{
	"asset":{
		"generator":"Khronos glTF Blender I/O v3.6.27",
		"version":"2.0"
	},
	"scene":0,
	"scenes":[
		{
			"name":"Scene",
			"nodes":[
				0
			]
		}
	],
	"nodes":[
		{
			"mesh":0,
			"name":"Cube"
		}
	],
	"materials":[
		{
			"doubleSided":true,
			"name":"Black",
			"pbrMetallicRoughness":{
				"baseColorFactor":[
					0,
					0,
					0,
					1
				],
				"metallicFactor":0,
				"roughnessFactor":0.5
			}
		},
		{
			"doubleSided":true,
			"name":"White",
			"pbrMetallicRoughness":{
				"baseColorFactor":[
					0.800000011920929,
					0.800000011920929,
					0.800000011920929,
					1
				],
				"metallicFactor":0,
				"roughnessFactor":0.5
			}
		}
	],
	"meshes":[
		{
			"name":"Cube.001",
			"primitives":[
				{
					"attributes":{
						"POSITION":0,
						"NORMAL":1,
						"TEXCOORD_0":2,
						"TANGENT":3
					},
					"indices":4,
					"material":0
				},
				{
					"attributes":{
						"POSITION":5,
						"NORMAL":6,
						"TEXCOORD_0":7,
						"TANGENT":8
					},
					"indices":9,
					"material":1
				}
			]
		}
	],
	"accessors":[
		{
			"bufferView":0,
			"componentType":5126,
			"count":2037,
			"max":[
				0.9525478482246399,
				0.9926375150680542,
				0.9862220287322998
			],
			"min":[
				-0.9874975085258484,
				-0.9927016496658325,
				-0.9859765768051147
			],
			"type":"VEC3"
		},
		{
			"bufferView":1,
			"componentType":5126,
			"count":2037,
			"type":"VEC3"
		},
		{
			"bufferView":2,
			"componentType":5126,
			"count":2037,
			"type":"VEC2"
		},
		{
			"bufferView":3,
			"componentType":5126,
			"count":2037,
			"type":"VEC4"
		},
		{
			"bufferView":4,
			"componentType":5123,
			"count":10080,
			"type":"SCALAR"
		},
		{
			"bufferView":5,
			"componentType":5126,
			"count":9956,
			"max":[
				1.000000238418579,
				1.000000238418579,
				1.000000238418579
			],
			"min":[
				-1.000000238418579,
				-1.000000238418579,
				-1.000000238418579
			],
			"type":"VEC3"
		},
		{
			"bufferView":6,
			"componentType":5126,
			"count":9956,
			"type":"VEC3"
		},
		{
			"bufferView":7,
			"componentType":5126,
			"count":9956,
			"type":"VEC2"
		},
		{
			"bufferView":8,
			"componentType":5126,
			"count":9956,
			"type":"VEC4"
		},
		{
			"bufferView":9,
			"componentType":5123,
			"count":38496,
			"type":"SCALAR"
		}
	],
	"bufferViews":[
		{
			"buffer":0,
			"byteLength":24444,
			"byteOffset":0,
			"target":34962
		},
		{
			"buffer":0,
			"byteLength":24444,
			"byteOffset":24444,
			"target":34962
		},
		{
			"buffer":0,
			"byteLength":16296,
			"byteOffset":48888,
			"target":34962
		},
		{
			"buffer":0,
			"byteLength":32592,
			"byteOffset":65184,
			"target":34962
		},
		{
			"buffer":0,
			"byteLength":20160,
			"byteOffset":97776,
			"target":34963
		},
		{
			"buffer":0,
			"byteLength":119472,
			"byteOffset":117936,
			"target":34962
		},
		{
			"buffer":0,
			"byteLength":119472,
			"byteOffset":237408,
			"target":34962
		},
		{
			"buffer":0,
			"byteLength":79648,
			"byteOffset":356880,
			"target":34962
		},
		{
			"buffer":0,
			"byteLength":159296,
			"byteOffset":436528,
			"target":34962
		},
		{
			"buffer":0,
			"byteLength":76992,
			"byteOffset":595824,
			"target":34963
		}
	],
	"buffers":[
		{
			"byteLength":672816,
			"uri":"die-9aec5d010e04644dd8a2cdf765ede610.bin"
		}
	]
}
