{
	"asset":{
		"generator":"Khronos glTF Blender I/O v3.6.27",
		"version":"2.0"
	},
	"scene":0,
	"scenes":[
		{
			"name":"Scene",
			"nodes":[
				0
			]
		}
	],
	"nodes":[
		{
			"mesh":0,
			"name":"Cube"
		}
	],
	"materials":[
		{
			"alphaMode":"BLEND",
			"doubleSided":true,
			"name":"White",
			"pbrMetallicRoughness":{
				"baseColorFactor":[
					0.800000011920929,
					0.800000011920929,
					0.800000011920929,
					1
				],
				"metallicFactor":0,
				"roughnessFactor":0.5
			}
		},
		{
			"doubleSided":true,
			"name":"Black",
			"pbrMetallicRoughness":{
				"baseColorFactor":[
					0.800000011920929,
					0.800000011920929,
					0.800000011920929,
					1
				],
				"metallicFactor":0,
				"roughnessFactor":0.5
			}
		}
	],
	"meshes":[
		{
			"name":"Cube",
			"primitives":[
				{
					"attributes":{
						"POSITION":0,
						"NORMAL":1,
						"TEXCOORD_0":2,
						"TANGENT":3
					},
					"indices":4,
					"material":0
				},
				{
					"attributes":{
						"POSITION":5,
						"NORMAL":6,
						"TEXCOORD_0":7,
						"TANGENT":8
					},
					"indices":9,
					"material":1
				}
			]
		}
	],
	"accessors":[
		{
			"bufferView":0,
			"componentType":5126,
			"count":9665,
			"max":[
				1.0013362169265747,
				1.000000238418579,
				1.000000238418579
			],
			"min":[
				-1.000000238418579,
				-1.000000238418579,
				-1.000000238418579
			],
			"type":"VEC3"
		},
		{
			"bufferView":1,
			"componentType":5126,
			"count":9665,
			"type":"VEC3"
		},
		{
			"bufferView":2,
			"componentType":5126,
			"count":9665,
			"type":"VEC2"
		},
		{
			"bufferView":3,
			"componentType":5126,
			"count":9665,
			"type":"VEC4"
		},
		{
			"bufferView":4,
			"componentType":5123,
			"count":36864,
			"type":"SCALAR"
		},
		{
			"bufferView":5,
			"componentType":5126,
			"count":3613,
			"max":[
				1.0056363344192505,
				0.9975477457046509,
				0.9976813197135925
			],
			"min":[
				-0.9977756142616272,
				-0.9974324703216553,
				-0.9977288246154785
			],
			"type":"VEC3"
		},
		{
			"bufferView":6,
			"componentType":5126,
			"count":3613,
			"type":"VEC3"
		},
		{
			"bufferView":7,
			"componentType":5126,
			"count":3613,
			"type":"VEC2"
		},
		{
			"bufferView":8,
			"componentType":5126,
			"count":3613,
			"type":"VEC4"
		},
		{
			"bufferView":9,
			"componentType":5123,
			"count":18624,
			"type":"SCALAR"
		}
	],
	"bufferViews":[
		{
			"buffer":0,
			"byteLength":115980,
			"byteOffset":0,
			"target":34962
		},
		{
			"buffer":0,
			"byteLength":115980,
			"byteOffset":115980,
			"target":34962
		},
		{
			"buffer":0,
			"byteLength":77320,
			"byteOffset":231960,
			"target":34962
		},
		{
			"buffer":0,
			"byteLength":154640,
			"byteOffset":309280,
			"target":34962
		},
		{
			"buffer":0,
			"byteLength":73728,
			"byteOffset":463920,
			"target":34963
		},
		{
			"buffer":0,
			"byteLength":43356,
			"byteOffset":537648,
			"target":34962
		},
		{
			"buffer":0,
			"byteLength":43356,
			"byteOffset":581004,
			"target":34962
		},
		{
			"buffer":0,
			"byteLength":28904,
			"byteOffset":624360,
			"target":34962
		},
		{
			"buffer":0,
			"byteLength":57808,
			"byteOffset":653264,
			"target":34962
		},
		{
			"buffer":0,
			"byteLength":37248,
			"byteOffset":711072,
			"target":34963
		}
	],
	"buffers":[
		{
			"byteLength":748320,
			"uri":"dice-6495db3175a37ceb14ba58d0ad4224ad.bin"
		}
	]
}
