{
	"asset":{
		"generator":"Khronos glTF Blender I/O v3.6.27",
		"version":"2.0"
	},
	"scene":0,
	"scenes":[
		{
			"name":"Scene",
			"nodes":[
				0
			]
		}
	],
	"nodes":[
		{
			"mesh":0,
			"name":"Cube"
		}
	],
	"materials":[
		{
			"doubleSided":true,
			"name":"White",
			"pbrMetallicRoughness":{
				"baseColorFactor":[
					0.800000011920929,
					0.800000011920929,
					0.800000011920929,
					1
				],
				"metallicFactor":0,
				"roughnessFactor":0.5
			}
		},
		{
			"doubleSided":true,
			"name":"Black",
			"pbrMetallicRoughness":{
				"baseColorFactor":[
					0,
					0,
					0,
					1
				],
				"metallicFactor":0,
				"roughnessFactor":0.5
			}
		}
	],
	"meshes":[
		{
			"name":"Cube",
			"primitives":[
				{
					"attributes":{
						"POSITION":0,
						"NORMAL":1,
						"TEXCOORD_0":2,
						"TANGENT":3
					},
					"indices":4,
					"material":0
				},
				{
					"attributes":{
						"POSITION":5,
						"NORMAL":6,
						"TEXCOORD_0":7,
						"TANGENT":8
					},
					"indices":9,
					"material":1
				}
			]
		}
	],
	"accessors":[
		{
			"bufferView":0,
			"componentType":5126,
			"count":11771,
			"max":[
				1.000000238418579,
				1.000000238418579,
				1.000000238418579
			],
			"min":[
				-1.0015156269073486,
				-1.000000238418579,
				-1.000000238418579
			],
			"type":"VEC3"
		},
		{
			"bufferView":1,
			"componentType":5126,
			"count":11771,
			"type":"VEC3"
		},
		{
			"bufferView":2,
			"componentType":5126,
			"count":11771,
			"type":"VEC2"
		},
		{
			"bufferView":3,
			"componentType":5126,
			"count":11771,
			"type":"VEC4"
		},
		{
			"bufferView":4,
			"componentType":5123,
			"count":44448,
			"type":"SCALAR"
		},
		{
			"bufferView":5,
			"componentType":5126,
			"count":2119,
			"max":[
				0.9763196706771851,
				0.9975717663764954,
				0.9845954179763794
			],
			"min":[
				-0.976436197757721,
				-0.9919047355651855,
				-0.9919102191925049
			],
			"type":"VEC3"
		},
		{
			"bufferView":6,
			"componentType":5126,
			"count":2119,
			"type":"VEC3"
		},
		{
			"bufferView":7,
			"componentType":5126,
			"count":2119,
			"type":"VEC2"
		},
		{
			"bufferView":8,
			"componentType":5126,
			"count":2119,
			"type":"VEC4"
		},
		{
			"bufferView":9,
			"componentType":5123,
			"count":10080,
			"type":"SCALAR"
		}
	],
	"bufferViews":[
		{
			"buffer":0,
			"byteLength":141252,
			"byteOffset":0,
			"target":34962
		},
		{
			"buffer":0,
			"byteLength":141252,
			"byteOffset":141252,
			"target":34962
		},
		{
			"buffer":0,
			"byteLength":94168,
			"byteOffset":282504,
			"target":34962
		},
		{
			"buffer":0,
			"byteLength":188336,
			"byteOffset":376672,
			"target":34962
		},
		{
			"buffer":0,
			"byteLength":88896,
			"byteOffset":565008,
			"target":34963
		},
		{
			"buffer":0,
			"byteLength":25428,
			"byteOffset":653904,
			"target":34962
		},
		{
			"buffer":0,
			"byteLength":25428,
			"byteOffset":679332,
			"target":34962
		},
		{
			"buffer":0,
			"byteLength":16952,
			"byteOffset":704760,
			"target":34962
		},
		{
			"buffer":0,
			"byteLength":33904,
			"byteOffset":721712,
			"target":34962
		},
		{
			"buffer":0,
			"byteLength":20160,
			"byteOffset":755616,
			"target":34963
		}
	],
	"buffers":[
		{
			"byteLength":775776,
			"uri":"die-0de7a32ac34fbdf8f9fb3cdb9720d194.bin"
		}
	]
}
